<svg xmlns="http://www.w3.org/2000/svg" width="1600" height="1000" viewBox="0 0 1600 1000" role="img" aria-labelledby="title desc">
  <title id="title">MAS Law Firm</title>
  <desc id="desc">Clearer visuals for registrations, filings, and legal support across the site.</desc>
  <defs>
    <linearGradient id="bg" x1="0" y1="0" x2="1" y2="1">
      <stop offset="0%" stop-color="#0d2742"/>
      <stop offset="60%" stop-color="#144f66"/>
      <stop offset="100%" stop-color="#f59e0b"/>
    </linearGradient>
  </defs>

  <rect width="1600" height="1000" fill="url(#bg)"/>
  <circle cx="1250" cy="220" r="330" fill="#e6f6ff" opacity="0.14"/>
  <circle cx="1400" cy="780" r="250" fill="#ffffff" opacity="0.06"/>
  <path d="M0 1000 V690 C180 610 360 570 600 590 C900 615 1090 760 1600 690 V1000 Z" fill="rgba(255,255,255,0.05)"/>
  <rect x="84" y="86" width="248" height="46" rx="16" fill="rgba(255,255,255,0.12)" stroke="rgba(255,255,255,0.16)"/>
  <text x="106" y="116" font-size="20" font-weight="700" fill="#ffffff" font-family="Arial, Helvetica, sans-serif">Page Banner</text>
  <text x="96" y="224" font-size="74" font-weight="800" fill="#ffffff" font-family="Arial, Helvetica, sans-serif">MAS Law Firm</text>
  <text x="98" y="282" font-size="28" font-weight="500" fill="#e5eef7" font-family="Arial, Helvetica, sans-serif"><tspan x="98" dy="0">Clearer visuals for registrations, filings,</tspan><tspan x="98" dy="35">and legal support across the site.</tspan></text>
  <rect x="98" y="320" width="162" height="50" rx="18" fill="rgba(255,255,255,0.12)" stroke="rgba(255,255,255,0.16)"/><text x="179" y="352" text-anchor="middle" font-size="20" font-weight="700" fill="#ffffff" font-family="Arial, Helvetica, sans-serif">Tax</text><rect x="280" y="320" width="162" height="50" rx="18" fill="rgba(255,255,255,0.12)" stroke="rgba(255,255,255,0.16)"/><text x="361" y="352" text-anchor="middle" font-size="20" font-weight="700" fill="#ffffff" font-family="Arial, Helvetica, sans-serif">Legal</text><rect x="462" y="320" width="162" height="50" rx="18" fill="rgba(255,255,255,0.12)" stroke="rgba(255,255,255,0.16)"/><text x="543" y="352" text-anchor="middle" font-size="20" font-weight="700" fill="#ffffff" font-family="Arial, Helvetica, sans-serif">Business Setup</text>

</svg>
