<svg xmlns="http://www.w3.org/2000/svg" width="1600" height="1000" viewBox="0 0 1600 1000" role="img" aria-labelledby="title desc">
  <title id="title">IT Company Registration</title>
  <desc id="desc">Sector-specific visuals for software, call centers, incentives, and export positioning.</desc>
  <defs>
    <linearGradient id="bg" x1="0" y1="0" x2="1" y2="1">
      <stop offset="0%" stop-color="#111827"/>
      <stop offset="60%" stop-color="#2563eb"/>
      <stop offset="100%" stop-color="#06b6d4"/>
    </linearGradient>
  </defs>

  <rect width="1600" height="1000" fill="url(#bg)"/>
  <path d="M0 0 H1600 V360 C1350 460 1100 520 820 520 C580 520 250 430 0 290 Z" fill="rgba(255,255,255,0.06)"/>
  <circle cx="1360" cy="150" r="220" fill="#dbeafe" opacity="0.15"/>
  <rect x="82" y="82" width="230" height="46" rx="16" fill="rgba(255,255,255,0.12)" stroke="rgba(255,255,255,0.16)"/>
  <text x="104" y="112" font-size="20" font-weight="700" fill="#ffffff" font-family="Arial, Helvetica, sans-serif">Process Map</text>
  <text x="92" y="220" font-size="68" font-weight="800" fill="#ffffff" font-family="Arial, Helvetica, sans-serif">IT Company Registration</text>
  <text x="94" y="286" font-size="27" font-weight="500" fill="#e5eef7" font-family="Arial, Helvetica, sans-serif"><tspan x="94" dy="0">Sector-specific visuals for</tspan><tspan x="94" dy="34">software, call centers, incentives,</tspan><tspan x="94" dy="34">and export positioning.</tspan></text>
  <rect x="94" y="390" width="1408" height="220" rx="36" fill="rgba(6,15,24,0.12)" stroke="rgba(255,255,255,0.14)"/>
  <text x="138" y="452" font-size="28" font-weight="700" fill="#ffffff" font-family="Arial, Helvetica, sans-serif">How the filing route usually moves</text>
  <line x1="112" y1="706" x2="1410" y2="706" stroke="rgba(255,255,255,0.25)" stroke-width="6"/>
  <circle cx="112" cy="706" r="22" fill="#06b6d4"/><text x="112" y="713" text-anchor="middle" font-size="18" font-weight="700" fill="#111827" font-family="Arial, Helvetica, sans-serif">1</text><rect x="70" y="756" width="330" height="150" rx="24" fill="rgba(255,255,255,0.92)"/><text x="100" y="810" font-size="28" font-weight="800" fill="#111827" font-family="Arial, Helvetica, sans-serif">Structure</text><text x="100" y="854" font-size="20" font-weight="500" fill="#334155" font-family="Arial, Helvetica, sans-serif"><tspan x="100" dy="0">Choose the right business</tspan><tspan x="100" dy="26">vehicle.</tspan></text><circle cx="582" cy="706" r="22" fill="#06b6d4"/><text x="582" y="713" text-anchor="middle" font-size="18" font-weight="700" fill="#111827" font-family="Arial, Helvetica, sans-serif">2</text><rect x="540" y="756" width="330" height="150" rx="24" fill="rgba(255,255,255,0.92)"/><text x="570" y="810" font-size="28" font-weight="800" fill="#111827" font-family="Arial, Helvetica, sans-serif">Prepare Pack</text><text x="570" y="854" font-size="20" font-weight="500" fill="#334155" font-family="Arial, Helvetica, sans-serif"><tspan x="570" dy="0">Compile entity and service</tspan><tspan x="570" dy="26">records.</tspan></text><circle cx="1052" cy="706" r="22" fill="#06b6d4"/><text x="1052" y="713" text-anchor="middle" font-size="18" font-weight="700" fill="#111827" font-family="Arial, Helvetica, sans-serif">3</text><rect x="1010" y="756" width="330" height="150" rx="24" fill="rgba(255,255,255,0.92)"/><text x="1040" y="810" font-size="28" font-weight="800" fill="#111827" font-family="Arial, Helvetica, sans-serif">Register</text><text x="1040" y="854" font-size="20" font-weight="500" fill="#334155" font-family="Arial, Helvetica, sans-serif"><tspan x="1040" dy="0">Proceed with company and</tspan><tspan x="1040" dy="26">sector positioning.</tspan></text>

</svg>
