<svg xmlns="http://www.w3.org/2000/svg" viewBox="0 0 32 32" width="34" height="34">
  <path fill="#FFFFFF" d="M16 2C8.27 2 2 8.27 2 16c0 2.85.84 5.52 2.29 7.75L2 30l7.47-2.29A15.94 15.94 0 0016 28c7.73 0 14-6.27 14-14S23.73 2 16 2zm8.84 22.07c-.34.95-1.93 1.76-2.61 1.88-.68.12-1.32.22-3.48-.66-2.61-1.07-4.29-3.74-4.42-3.91-.13-.17-.96-1.28-.96-2.44s.6-1.74 1.18-2.24c.58-.5 1.27-.62 1.7-.62s.87-.01 1.24-.01c.38 0 .99-.06 1.52.37.54.44.93 1.14.93 1.17s-.91 4.32-1.06 4.79c-.15.47-.31 1.38-.02 1.94.29.56 1.48 2.17 3.16 2.97 2.17 1.04 2.94.87 3.47.73.53-.14 1.69-.7 1.94-1.37.25-.67.25-1.4.17-1.53-.08-.13-.3-.21-.63-.37z"/>
</svg>